<svg width="678" height="332" viewBox="0 0 678 332" fill="none" xmlns="http://www.w3.org/2000/svg">
<path d="M358.5 263L358.5 285.647C358.5 287.175 358.032 288.66 357.167 289.88V289.88C355.883 291.691 353.854 292.738 351.713 292.695L332.612 292.313" stroke="#FFAA22" stroke-width="5"/>
<ellipse cx="322.529" cy="292.611" rx="11.5286" ry="11.7501" fill="#FB181B"/>
<path d="M415 263L414.99 283.873C414.989 285.892 415.714 287.835 417.017 289.308V289.308C418.437 290.912 420.421 291.822 422.5 291.82L440.951 291.811" stroke="#FFAA22" stroke-width="5"/>
<ellipse cx="11.5286" cy="11.7501" rx="11.5286" ry="11.7501" transform="matrix(-1 0 0 1 462.074 280.861)" fill="#FB181B"/>
<path d="M372.691 263.035L373.024 288.881L360.454 310.945" stroke="#FFB222" stroke-width="5"/>
<ellipse cx="354.127" cy="320.117" rx="11.5286" ry="11.7501" fill="#FB181B"/>
<path d="M400.583 263.112L400.855 289.311L413 312" stroke="#FFB222" stroke-width="5"/>
<ellipse cx="11.5286" cy="11.7501" rx="11.5286" ry="11.7501" transform="matrix(-1 0 0 1 431.546 308.367)" fill="#FB181B"/>
<line x1="386.936" y1="263" x2="386.936" y2="310.697" stroke="#FFAA22" stroke-width="5"/>
<ellipse cx="11.5286" cy="11.9242" rx="11.5286" ry="11.9242" transform="matrix(-1 0 0 1 398.101 307.942)" fill="#FB181B"/>
<mask id="path-11-outside-1_1_53" maskUnits="userSpaceOnUse" x="-2" y="185" width="679" height="77" fill="black">
<rect fill="white" x="-2" y="185" width="679" height="77"/>
<path d="M31.7812 259H0.09375L24.9375 187.469H70.0781L94.9219 259H63.2812L59.1562 246.906H35.9062L31.7812 259ZM41.6719 230.031H53.3906L47.5312 212.266L41.6719 230.031ZM173.109 259.562H149.109L133.734 237.016V259H102.094V187.469H124.734L141.422 211.656V187.469H173.109V259.562ZM187.125 187.469H222.328C235.016 187.469 244.812 190.984 251.719 198.016C258.625 205.016 262.078 213.469 262.078 223.375C262.078 229.688 260.5 235.656 257.344 241.281C254.219 246.875 249.625 251.234 243.562 254.359C237.5 257.453 230.172 259 221.578 259H187.125V187.469ZM218.766 214.844V231.625H219.562C223.375 231.625 226.125 230.969 227.812 229.656C229.531 228.312 230.391 226.125 230.391 223.094C230.391 217.594 227.188 214.844 220.781 214.844H218.766Z"/>
<path d="M342.984 259.562H318.984L303.609 237.016V259H271.969V187.469H294.609L311.297 211.656V187.469H342.984V259.562ZM420.703 219.156V187.469H484.266V219.156H468.328V259H436.641V219.156H420.703Z"/>
<path d="M416.297 241.047V259H356.906V187.469H416.297V205.422H388.547V214.281H407.859V232.234H388.547V241.047H416.297Z"/>
<path d="M493.219 259V187.469H524.859V259H493.219ZM605.672 193.891L592.406 219.156C588.531 217.812 584.25 217.141 579.562 217.141C572.844 217.141 569.484 218.969 569.484 222.625C569.484 224.375 570.422 225.75 572.297 226.75C574.172 227.719 576.844 228.203 580.312 228.203C585 228.203 589.031 227.359 592.406 225.672L605.672 252.766C601.922 255.016 597.391 256.812 592.078 258.156C586.766 259.5 581.688 260.172 576.844 260.172C564.688 260.172 555 256.672 547.781 249.672C540.594 242.641 537 234 537 223.75C537 212.906 540.75 203.969 548.25 196.938C555.75 189.875 565.281 186.344 576.844 186.344C581.844 186.344 587 187.031 592.312 188.406C597.656 189.75 602.109 191.578 605.672 193.891ZM674.062 191.125L666.188 213.672C661.031 206.703 655.109 203.219 648.422 203.219C644.703 203.219 642.844 204.625 642.844 207.438C642.844 208.312 643.422 209.203 644.578 210.109C645.766 211.016 648.844 212.438 653.812 214.375C659.281 216.531 663.484 218.5 666.422 220.281C669.391 222.031 671.609 224.281 673.078 227.031C674.547 229.781 675.281 232.984 675.281 236.641C675.281 244.297 672.375 250.141 666.562 254.172C660.75 258.172 652.203 260.172 640.922 260.172C628.266 260.172 617.359 258.375 608.203 254.781L615.938 230.875C618.188 234.375 620.969 237.156 624.281 239.219C627.625 241.281 630.828 242.312 633.891 242.312C635.391 242.312 636.641 241.922 637.641 241.141C638.672 240.359 639.188 239.406 639.188 238.281C639.188 237.219 638.688 236.203 637.688 235.234C636.719 234.266 634.125 232.922 629.906 231.203C626.094 229.672 622.938 228.188 620.438 226.75C617.938 225.281 615.766 223.203 613.922 220.516C612.078 217.828 611.156 214.438 611.156 210.344C611.156 202.406 614.047 196.422 619.828 192.391C625.609 188.359 634.141 186.344 645.422 186.344C655.734 186.344 665.281 187.938 674.062 191.125Z"/>
</mask>
<path d="M31.7812 259H0.09375L24.9375 187.469H70.0781L94.9219 259H63.2812L59.1562 246.906H35.9062L31.7812 259ZM41.6719 230.031H53.3906L47.5312 212.266L41.6719 230.031ZM173.109 259.562H149.109L133.734 237.016V259H102.094V187.469H124.734L141.422 211.656V187.469H173.109V259.562ZM187.125 187.469H222.328C235.016 187.469 244.812 190.984 251.719 198.016C258.625 205.016 262.078 213.469 262.078 223.375C262.078 229.688 260.5 235.656 257.344 241.281C254.219 246.875 249.625 251.234 243.562 254.359C237.5 257.453 230.172 259 221.578 259H187.125V187.469ZM218.766 214.844V231.625H219.562C223.375 231.625 226.125 230.969 227.812 229.656C229.531 228.312 230.391 226.125 230.391 223.094C230.391 217.594 227.188 214.844 220.781 214.844H218.766Z" fill="#00BCE1"/>
<path d="M342.984 259.562H318.984L303.609 237.016V259H271.969V187.469H294.609L311.297 211.656V187.469H342.984V259.562ZM420.703 219.156V187.469H484.266V219.156H468.328V259H436.641V219.156H420.703Z" fill="#FB181B"/>
<path d="M416.297 241.047V259H356.906V187.469H416.297V205.422H388.547V214.281H407.859V232.234H388.547V241.047H416.297Z" fill="#FF8F0D"/>
<path d="M493.219 259V187.469H524.859V259H493.219ZM605.672 193.891L592.406 219.156C588.531 217.812 584.25 217.141 579.562 217.141C572.844 217.141 569.484 218.969 569.484 222.625C569.484 224.375 570.422 225.75 572.297 226.75C574.172 227.719 576.844 228.203 580.312 228.203C585 228.203 589.031 227.359 592.406 225.672L605.672 252.766C601.922 255.016 597.391 256.812 592.078 258.156C586.766 259.5 581.688 260.172 576.844 260.172C564.688 260.172 555 256.672 547.781 249.672C540.594 242.641 537 234 537 223.75C537 212.906 540.75 203.969 548.25 196.938C555.75 189.875 565.281 186.344 576.844 186.344C581.844 186.344 587 187.031 592.312 188.406C597.656 189.75 602.109 191.578 605.672 193.891ZM674.062 191.125L666.188 213.672C661.031 206.703 655.109 203.219 648.422 203.219C644.703 203.219 642.844 204.625 642.844 207.438C642.844 208.312 643.422 209.203 644.578 210.109C645.766 211.016 648.844 212.438 653.812 214.375C659.281 216.531 663.484 218.5 666.422 220.281C669.391 222.031 671.609 224.281 673.078 227.031C674.547 229.781 675.281 232.984 675.281 236.641C675.281 244.297 672.375 250.141 666.562 254.172C660.75 258.172 652.203 260.172 640.922 260.172C628.266 260.172 617.359 258.375 608.203 254.781L615.938 230.875C618.188 234.375 620.969 237.156 624.281 239.219C627.625 241.281 630.828 242.312 633.891 242.312C635.391 242.312 636.641 241.922 637.641 241.141C638.672 240.359 639.188 239.406 639.188 238.281C639.188 237.219 638.688 236.203 637.688 235.234C636.719 234.266 634.125 232.922 629.906 231.203C626.094 229.672 622.938 228.188 620.438 226.75C617.938 225.281 615.766 223.203 613.922 220.516C612.078 217.828 611.156 214.438 611.156 210.344C611.156 202.406 614.047 196.422 619.828 192.391C625.609 188.359 634.141 186.344 645.422 186.344C655.734 186.344 665.281 187.938 674.062 191.125Z" fill="#011641"/>
<path d="M31.7812 259V260H32.4967L32.7277 259.323L31.7812 259ZM0.09375 259L-0.850897 258.672L-1.31216 260H0.09375V259ZM24.9375 187.469V186.469H24.2262L23.9929 187.141L24.9375 187.469ZM70.0781 187.469L71.0228 187.141L70.7894 186.469H70.0781V187.469ZM94.9219 259V260H96.3278L95.8665 258.672L94.9219 259ZM63.2812 259L62.3348 259.323L62.5658 260H63.2812V259ZM59.1562 246.906L60.1027 246.583L59.8717 245.906H59.1562V246.906ZM35.9062 246.906V245.906H35.1908L34.9598 246.583L35.9062 246.906ZM41.6719 230.031L40.7222 229.718L40.2891 231.031H41.6719V230.031ZM53.3906 230.031V231.031H54.7734L54.3403 229.718L53.3906 230.031ZM47.5312 212.266L48.4809 211.952L47.5312 209.073L46.5816 211.952L47.5312 212.266ZM31.7812 258H0.09375V260H31.7812V258ZM1.0384 259.328L25.8821 187.797L23.9929 187.141L-0.850897 258.672L1.0384 259.328ZM24.9375 188.469H70.0781V186.469H24.9375V188.469ZM69.1335 187.797L93.9772 259.328L95.8665 258.672L71.0228 187.141L69.1335 187.797ZM94.9219 258H63.2812V260H94.9219V258ZM64.2277 258.677L60.1027 246.583L58.2098 247.229L62.3348 259.323L64.2277 258.677ZM59.1562 245.906H35.9062V247.906H59.1562V245.906ZM34.9598 246.583L30.8348 258.677L32.7277 259.323L36.8527 247.229L34.9598 246.583ZM41.6719 231.031H53.3906V229.031H41.6719V231.031ZM54.3403 229.718L48.4809 211.952L46.5816 212.579L52.4409 230.344L54.3403 229.718ZM46.5816 211.952L40.7222 229.718L42.6216 230.344L48.4809 212.579L46.5816 211.952ZM173.109 259.562V260.562H174.109V259.562H173.109ZM149.109 259.562L148.283 260.126L148.581 260.562H149.109V259.562ZM133.734 237.016L134.561 236.452L132.734 233.774V237.016H133.734ZM133.734 259V260H134.734V259H133.734ZM102.094 259H101.094V260H102.094V259ZM102.094 187.469V186.469H101.094V187.469H102.094ZM124.734 187.469L125.557 186.901L125.259 186.469H124.734V187.469ZM141.422 211.656L140.599 212.224L142.422 214.867V211.656H141.422ZM141.422 187.469V186.469H140.422V187.469H141.422ZM173.109 187.469H174.109V186.469H173.109V187.469ZM173.109 258.562H149.109V260.562H173.109V258.562ZM149.936 258.999L134.561 236.452L132.908 237.579L148.283 260.126L149.936 258.999ZM132.734 237.016V259H134.734V237.016H132.734ZM133.734 258H102.094V260H133.734V258ZM103.094 259V187.469H101.094V259H103.094ZM102.094 188.469H124.734V186.469H102.094V188.469ZM123.911 188.037L140.599 212.224L142.245 211.088L125.557 186.901L123.911 188.037ZM142.422 211.656V187.469H140.422V211.656H142.422ZM141.422 188.469H173.109V186.469H141.422V188.469ZM172.109 187.469V259.562H174.109V187.469H172.109ZM187.125 187.469V186.469H186.125V187.469H187.125ZM251.719 198.016L251.005 198.716L251.007 198.718L251.719 198.016ZM257.344 241.281L256.472 240.792L256.471 240.794L257.344 241.281ZM243.562 254.359L244.017 255.25L244.021 255.248L243.562 254.359ZM187.125 259H186.125V260H187.125V259ZM218.766 214.844V213.844H217.766V214.844H218.766ZM218.766 231.625H217.766V232.625H218.766V231.625ZM227.812 229.656L228.426 230.446L228.428 230.444L227.812 229.656ZM187.125 188.469H222.328V186.469H187.125V188.469ZM222.328 188.469C234.828 188.469 244.337 191.927 251.005 198.716L252.432 197.315C245.288 190.041 235.203 186.469 222.328 186.469V188.469ZM251.007 198.718C257.727 205.529 261.078 213.729 261.078 223.375H263.078C263.078 213.208 259.523 204.502 252.431 197.313L251.007 198.718ZM261.078 223.375C261.078 229.512 259.546 235.313 256.472 240.792L258.216 241.771C261.454 236 263.078 229.863 263.078 223.375H261.078ZM256.471 240.794C253.448 246.204 249.004 250.429 243.104 253.471L244.021 255.248C250.246 252.039 254.99 247.546 258.217 241.769L256.471 240.794ZM243.108 253.469C237.218 256.474 230.054 258 221.578 258V260C230.289 260 237.782 258.432 244.017 255.25L243.108 253.469ZM221.578 258H187.125V260H221.578V258ZM188.125 259V187.469H186.125V259H188.125ZM217.766 214.844V231.625H219.766V214.844H217.766ZM218.766 232.625H219.562V230.625H218.766V232.625ZM219.562 232.625C223.443 232.625 226.471 231.966 228.426 230.446L227.199 228.867C225.779 229.971 223.307 230.625 219.562 230.625V232.625ZM228.428 230.444C230.475 228.844 231.391 226.306 231.391 223.094H229.391C229.391 225.944 228.588 227.781 227.197 228.868L228.428 230.444ZM231.391 223.094C231.391 220.146 230.525 217.766 228.64 216.148C226.783 214.554 224.104 213.844 220.781 213.844V215.844C223.864 215.844 225.99 216.509 227.337 217.665C228.654 218.796 229.391 220.541 229.391 223.094H231.391ZM220.781 213.844H218.766V215.844H220.781V213.844ZM342.984 259.562V260.562H343.984V259.562H342.984ZM318.984 259.562L318.158 260.126L318.456 260.562H318.984V259.562ZM303.609 237.016L304.436 236.452L302.609 233.774V237.016H303.609ZM303.609 259V260H304.609V259H303.609ZM271.969 259H270.969V260H271.969V259ZM271.969 187.469V186.469H270.969V187.469H271.969ZM294.609 187.469L295.432 186.901L295.134 186.469H294.609V187.469ZM311.297 211.656L310.474 212.224L312.297 214.867V211.656H311.297ZM311.297 187.469V186.469H310.297V187.469H311.297ZM342.984 187.469H343.984V186.469H342.984V187.469ZM342.984 258.562H318.984V260.562H342.984V258.562ZM319.811 258.999L304.436 236.452L302.783 237.579L318.158 260.126L319.811 258.999ZM302.609 237.016V259H304.609V237.016H302.609ZM303.609 258H271.969V260H303.609V258ZM272.969 259V187.469H270.969V259H272.969ZM271.969 188.469H294.609V186.469H271.969V188.469ZM293.786 188.037L310.474 212.224L312.12 211.088L295.432 186.901L293.786 188.037ZM312.297 211.656V187.469H310.297V211.656H312.297ZM311.297 188.469H342.984V186.469H311.297V188.469ZM341.984 187.469V259.562H343.984V187.469H341.984ZM416.297 241.047H417.297V240.047H416.297V241.047ZM416.297 259V260H417.297V259H416.297ZM356.906 259H355.906V260H356.906V259ZM356.906 187.469V186.469H355.906V187.469H356.906ZM416.297 187.469H417.297V186.469H416.297V187.469ZM416.297 205.422V206.422H417.297V205.422H416.297ZM388.547 205.422V204.422H387.547V205.422H388.547ZM388.547 214.281H387.547V215.281H388.547V214.281ZM407.859 214.281H408.859V213.281H407.859V214.281ZM407.859 232.234V233.234H408.859V232.234H407.859ZM388.547 232.234V231.234H387.547V232.234H388.547ZM388.547 241.047H387.547V242.047H388.547V241.047ZM415.297 241.047V259H417.297V241.047H415.297ZM416.297 258H356.906V260H416.297V258ZM357.906 259V187.469H355.906V259H357.906ZM356.906 188.469H416.297V186.469H356.906V188.469ZM415.297 187.469V205.422H417.297V187.469H415.297ZM416.297 204.422H388.547V206.422H416.297V204.422ZM387.547 205.422V214.281H389.547V205.422H387.547ZM388.547 215.281H407.859V213.281H388.547V215.281ZM406.859 214.281V232.234H408.859V214.281H406.859ZM407.859 231.234H388.547V233.234H407.859V231.234ZM387.547 232.234V241.047H389.547V232.234H387.547ZM388.547 242.047H416.297V240.047H388.547V242.047ZM420.703 219.156H419.703V220.156H420.703V219.156ZM420.703 187.469V186.469H419.703V187.469H420.703ZM484.266 187.469H485.266V186.469H484.266V187.469ZM484.266 219.156V220.156H485.266V219.156H484.266ZM468.328 219.156V218.156H467.328V219.156H468.328ZM468.328 259V260H469.328V259H468.328ZM436.641 259H435.641V260H436.641V259ZM436.641 219.156H437.641V218.156H436.641V219.156ZM421.703 219.156V187.469H419.703V219.156H421.703ZM420.703 188.469H484.266V186.469H420.703V188.469ZM483.266 187.469V219.156H485.266V187.469H483.266ZM484.266 218.156H468.328V220.156H484.266V218.156ZM467.328 219.156V259H469.328V219.156H467.328ZM468.328 258H436.641V260H468.328V258ZM437.641 259V219.156H435.641V259H437.641ZM436.641 218.156H420.703V220.156H436.641V218.156ZM493.219 259H492.219V260H493.219V259ZM493.219 187.469V186.469H492.219V187.469H493.219ZM524.859 187.469H525.859V186.469H524.859V187.469ZM524.859 259V260H525.859V259H524.859ZM494.219 259V187.469H492.219V259H494.219ZM493.219 188.469H524.859V186.469H493.219V188.469ZM523.859 187.469V259H525.859V187.469H523.859ZM524.859 258H493.219V260H524.859V258ZM605.672 193.891L606.557 194.355L606.981 193.548L606.216 193.052L605.672 193.891ZM592.406 219.156L592.079 220.101L592.892 220.383L593.292 219.621L592.406 219.156ZM572.297 226.75L571.826 227.632L571.838 227.638L572.297 226.75ZM592.406 225.672L593.304 225.232L592.861 224.326L591.959 224.777L592.406 225.672ZM605.672 252.766L606.186 253.623L606.974 253.151L606.57 252.326L605.672 252.766ZM547.781 249.672L547.082 250.387L547.085 250.39L547.781 249.672ZM548.25 196.938L548.934 197.667L548.936 197.666L548.25 196.938ZM592.312 188.406L592.062 189.374L592.069 189.376L592.312 188.406ZM604.786 193.426L591.521 218.691L593.292 219.621L606.557 194.355L604.786 193.426ZM592.734 218.211C588.74 216.826 584.346 216.141 579.562 216.141V218.141C584.154 218.141 588.323 218.799 592.079 220.101L592.734 218.211ZM579.562 216.141C576.145 216.141 573.425 216.6 571.526 217.633C570.561 218.158 569.789 218.842 569.262 219.703C568.733 220.567 568.484 221.552 568.484 222.625H570.484C570.484 221.869 570.656 221.256 570.967 220.748C571.279 220.238 571.767 219.779 572.482 219.39C573.942 218.595 576.261 218.141 579.562 218.141V216.141ZM568.484 222.625C568.484 224.83 569.709 226.503 571.826 227.632L572.767 225.868C571.135 224.997 570.484 223.92 570.484 222.625H568.484ZM571.838 227.638C573.918 228.713 576.775 229.203 580.312 229.203V227.203C576.913 227.203 574.426 226.724 572.756 225.862L571.838 227.638ZM580.312 229.203C585.118 229.203 589.31 228.338 592.853 226.566L591.959 224.777C588.752 226.381 584.882 227.203 580.312 227.203V229.203ZM591.508 226.112L604.774 253.205L606.57 252.326L593.304 225.232L591.508 226.112ZM605.157 251.908C601.509 254.097 597.073 255.861 591.833 257.187L592.323 259.126C597.708 257.764 602.335 255.934 606.186 253.623L605.157 251.908ZM591.833 257.187C586.59 258.513 581.595 259.172 576.844 259.172V261.172C581.78 261.172 586.941 260.487 592.323 259.126L591.833 257.187ZM576.844 259.172C564.89 259.172 555.472 255.737 548.477 248.954L547.085 250.39C554.528 257.607 564.485 261.172 576.844 261.172V259.172ZM548.481 248.957C541.49 242.118 538 233.737 538 223.75H536C536 234.263 539.698 243.163 547.082 250.387L548.481 248.957ZM538 223.75C538 213.166 541.648 204.498 548.934 197.667L547.566 196.208C539.852 203.44 536 212.647 536 223.75H538ZM548.936 197.666C556.227 190.8 565.502 187.344 576.844 187.344V185.344C565.06 185.344 555.273 188.95 547.564 196.209L548.936 197.666ZM576.844 187.344C581.751 187.344 586.823 188.018 592.062 189.374L592.563 187.438C587.177 186.044 581.936 185.344 576.844 185.344V187.344ZM592.069 189.376C597.336 190.701 601.68 192.492 605.127 194.729L606.216 193.052C602.539 190.665 597.977 188.799 592.556 187.436L592.069 189.376ZM674.062 191.125L675.007 191.455L675.332 190.522L674.404 190.185L674.062 191.125ZM666.188 213.672L665.384 214.267L666.508 215.787L667.132 214.002L666.188 213.672ZM644.578 210.109L643.961 210.896L643.971 210.904L644.578 210.109ZM653.812 214.375L654.179 213.445L654.176 213.443L653.812 214.375ZM666.422 220.281L665.903 221.136L665.914 221.143L666.422 220.281ZM666.562 254.172L667.129 254.996L667.132 254.994L666.562 254.172ZM608.203 254.781L607.252 254.473L606.962 255.368L607.838 255.712L608.203 254.781ZM615.938 230.875L616.779 230.334L615.636 228.557L614.986 230.567L615.938 230.875ZM624.281 239.219L623.753 240.068L623.756 240.07L624.281 239.219ZM637.641 241.141L637.037 240.344L637.031 240.348L637.025 240.353L637.641 241.141ZM637.688 235.234L636.98 235.941L636.986 235.947L636.992 235.953L637.688 235.234ZM629.906 231.203L630.284 230.277L630.279 230.275L629.906 231.203ZM620.438 226.75L619.931 227.612L619.939 227.617L620.438 226.75ZM673.118 190.795L665.243 213.342L667.132 214.002L675.007 191.455L673.118 190.795ZM666.991 213.077C661.708 205.936 655.517 202.219 648.422 202.219V204.219C654.702 204.219 660.355 207.47 665.384 214.267L666.991 213.077ZM648.422 202.219C646.465 202.219 644.815 202.584 643.635 203.476C642.403 204.408 641.844 205.79 641.844 207.438H643.844C643.844 206.272 644.214 205.545 644.841 205.071C645.521 204.557 646.66 204.219 648.422 204.219V202.219ZM641.844 207.438C641.844 208.778 642.724 209.927 643.961 210.896L645.195 209.322C644.12 208.479 643.844 207.847 643.844 207.438H641.844ZM643.971 210.904C644.66 211.43 645.815 212.05 647.358 212.763C648.923 213.486 650.955 214.334 653.449 215.307L654.176 213.443C651.701 212.478 649.71 211.647 648.197 210.948C646.662 210.239 645.684 209.695 645.185 209.314L643.971 210.904ZM653.446 215.305C658.893 217.453 663.036 219.398 665.903 221.136L666.94 219.426C663.932 217.602 659.669 215.609 654.179 213.445L653.446 215.305ZM665.914 221.143C668.742 222.81 670.823 224.931 672.196 227.502L673.96 226.56C672.396 223.631 670.039 221.253 666.93 219.42L665.914 221.143ZM672.196 227.502C673.575 230.084 674.281 233.12 674.281 236.641H676.281C676.281 232.848 675.519 229.478 673.96 226.56L672.196 227.502ZM674.281 236.641C674.281 244.001 671.511 249.523 665.993 253.35L667.132 254.994C673.239 250.758 676.281 244.593 676.281 236.641H674.281ZM665.996 253.348C660.423 257.183 652.112 259.172 640.922 259.172V261.172C652.294 261.172 661.077 259.16 667.129 254.996L665.996 253.348ZM640.922 259.172C628.356 259.172 617.58 257.387 608.568 253.85L607.838 255.712C617.138 259.363 628.175 261.172 640.922 261.172V259.172ZM609.155 255.089L616.889 231.183L614.986 230.567L607.252 254.473L609.155 255.089ZM615.096 231.416C617.421 235.032 620.306 237.922 623.753 240.068L624.81 238.37C621.631 236.391 618.954 233.718 616.779 230.334L615.096 231.416ZM623.756 240.07C627.214 242.203 630.597 243.312 633.891 243.312V241.312C631.059 241.312 628.036 240.36 624.806 238.368L623.756 240.07ZM633.891 243.312C635.572 243.312 637.05 242.871 638.256 241.929L637.025 240.353C636.231 240.973 635.21 241.312 633.891 241.312V243.312ZM638.244 241.938C639.483 241 640.188 239.769 640.188 238.281H638.188C638.188 239.043 637.861 239.719 637.037 240.344L638.244 241.938ZM640.188 238.281C640.188 236.871 639.515 235.612 638.383 234.516L636.992 235.953C637.86 236.794 638.188 237.566 638.188 238.281H640.188ZM638.395 234.527C637.794 233.927 636.785 233.29 635.476 232.612C634.141 231.921 632.407 231.142 630.284 230.277L629.529 232.129C631.624 232.983 633.296 233.735 634.556 234.388C635.84 235.054 636.612 235.573 636.98 235.941L638.395 234.527ZM630.279 230.275C626.493 228.755 623.383 227.29 620.936 225.883L619.939 227.617C622.492 229.085 625.694 230.589 629.534 232.131L630.279 230.275ZM620.944 225.888C618.585 224.502 616.518 222.532 614.746 219.95L613.097 221.081C615.014 223.875 617.29 226.06 619.931 227.612L620.944 225.888ZM614.746 219.95C613.043 217.467 612.156 214.287 612.156 210.344H610.156C610.156 214.588 611.113 218.189 613.097 221.081L614.746 219.95ZM612.156 210.344C612.156 202.685 614.924 197.029 620.4 193.211L619.256 191.57C613.17 195.814 610.156 202.127 610.156 210.344H612.156ZM620.4 193.211C625.94 189.348 634.232 187.344 645.422 187.344V185.344C634.049 185.344 625.279 187.371 619.256 191.57L620.4 193.211ZM645.422 187.344C655.63 187.344 665.06 188.921 673.721 192.065L674.404 190.185C665.502 186.954 655.839 185.344 645.422 185.344V187.344Z" fill="#011641" mask="url(#path-11-outside-1_1_53)"/>
<path d="M410.135 166.826L405.101 169.836L405.1 176.653L410.135 179.333L415.111 176.493L415.111 169.835L410.135 166.826Z" stroke="#031641" stroke-width="3"/>
<line x1="410.359" y1="130.434" x2="410.359" y2="167.063" stroke="#031641" stroke-width="4"/>
<line x1="397.752" y1="125.074" x2="397.752" y2="137.581" stroke="#031641" stroke-width="4"/>
<path d="M397.528 137.345L392.493 140.354L392.493 147.171L397.528 149.851L402.503 147.012L402.503 140.353L397.528 137.345Z" stroke="#031641" stroke-width="3"/>
<path d="M384.929 116.14V148.302" stroke="#031641" stroke-width="4"/>
<path d="M384.921 148.302L379.886 151.312L379.886 158.129L384.921 160.809L389.896 157.969L389.896 151.311L384.921 148.302Z" stroke="#031641" stroke-width="3"/>
<path d="M408.996 97.8245L408.995 76.8335L418.235 67.9897L418.235 50.9238" stroke="#031641" stroke-width="4"/>
<path d="M418.165 38.2462L412.895 41.4201L412.895 48.0823L418.165 51.2091L423.626 48.0823L423.626 41.4238L418.165 38.2462Z" stroke="#031641" stroke-width="3"/>
<path d="M422.158 100.481L422.157 94.2281L431.397 84.9303L431.378 67.8591" stroke="#031641" stroke-width="4"/>
<path d="M432.246 57.0073L426.976 60.1812L426.976 66.8433L432.246 69.9702L437.707 66.8433L437.707 60.1849L432.246 57.0073Z" stroke="#031641" stroke-width="3"/>
<line x1="454.585" y1="127.775" x2="487.363" y2="127.775" stroke="#031641" stroke-width="4"/>
<path d="M488.99 122.631L486.109 127.788L488.991 133.334L495.218 133.334L497.869 127.788L495.218 122.636L488.99 122.631Z" fill="#FF920F" stroke="#FF920F"/>
<line x1="457.106" y1="141.835" x2="471.394" y2="141.835" stroke="#031641" stroke-width="4"/>
<path d="M479.687 136.021L473.631 136.134L470.637 141.987L473.863 147.41L480.066 147.435L483.058 141.585L479.687 136.021Z" fill="#00BCE1" stroke="#00BCE1"/>
<path d="M383.565 123.734V73.2576C383.565 72.7641 383.965 72.3642 384.458 72.3642H393.962C394.594 72.3642 395.225 72.4113 395.85 72.5052L397.122 72.6961C397.624 72.7716 398.102 72.9639 398.516 73.2576L399.146 73.7042L400.081 74.3663C400.298 74.5201 400.499 74.6953 400.681 74.8891L401.248 75.491L401.668 75.9377C401.925 76.2344 402.145 76.5615 402.323 76.9117L402.508 77.2778C403.314 78.743 403.736 80.3879 403.736 82.06V88.4451V89.7208C403.736 90.6517 403.878 91.5771 404.156 92.4653C404.435 93.0572 404.805 93.6014 405.253 94.0778L405.417 94.2521C405.976 94.8462 406.593 95.3831 407.258 95.8547L407.518 96.0389L408.989 96.9771C409.409 97.2445 409.849 97.4768 410.307 97.6714L411.721 98.2723L412.981 98.719L415.238 99.5186C416.253 99.8781 417.299 100.14 418.363 100.302L419.033 100.404C419.481 100.472 419.932 100.506 420.385 100.506H425.168C425.444 100.506 425.716 100.438 425.959 100.309L426.204 100.179C426.353 100.099 426.491 100 426.614 99.8834L434.413 92.4653L434.864 92.0048C435.144 91.7178 435.466 91.4747 435.819 91.2835L436.196 91.0791C436.681 90.8162 437.224 90.6786 437.775 90.6786H439.036H439.411C440.278 90.6786 441.141 90.7913 441.979 91.014L442.398 91.1252L443.349 91.4623C443.555 91.5353 443.755 91.6234 443.948 91.726C444.314 91.9201 444.65 92.1645 444.947 92.4519L458.367 105.419L461.65 108.521C461.981 108.834 462.272 109.188 462.514 109.575C462.829 110.077 463.059 110.627 463.194 111.204L463.237 111.385C463.352 111.873 463.41 112.373 463.41 112.875V113.013V113.907V115.247V116.14V116.587C463.41 117.175 463.28 117.756 463.029 118.289L462.989 118.373C462.711 118.966 462.346 119.514 461.907 119.999L461.762 120.16L460.501 121.5L460.048 121.947L459.627 122.394L459.207 122.84L458.787 123.287L457.559 124.627L456.719 125.521L456.298 125.967L454.503 127.875C454.307 128.084 454.197 128.36 454.197 128.647V129.094L454.164 130.881V132.221V133.114V134.008C454.164 134.89 454.359 135.762 454.735 136.56L455.425 138.028L457.931 143.356L459.627 146.515L460.888 148.302L461.806 149.278C462.034 149.52 462.286 149.739 462.557 149.931L463.41 150.535L463.661 150.669C464.053 150.877 464.462 151.057 464.88 151.205C465.298 151.353 465.737 151.429 466.18 151.429H475.596H476.155C476.62 151.429 477.081 151.508 477.519 151.663L477.765 151.751C478 151.834 478.228 151.934 478.448 152.051C478.788 152.231 479.11 152.443 479.41 152.682L480.075 153.212C480.451 153.512 480.805 153.838 481.134 154.188L481.48 154.556L482.74 156.342L483.226 157.203C483.734 158.103 484.001 159.119 484.001 160.152V182.697H431.472V174.657L431.051 167.063L430.755 164.384C430.394 161.123 429.589 157.926 428.362 154.883L427.145 151.864C426.668 150.682 426.102 149.538 425.451 148.443L423.349 144.906C422.044 142.71 420.503 140.663 418.752 138.802L416.763 136.688L414.242 134.454L411.3 132.221L407.938 129.987L404.03 128.02C401.32 126.655 398.476 125.574 395.543 124.795L393.23 124.18L392.362 123.95C391.822 123.806 391.267 123.734 390.709 123.734H387.347H383.565Z" fill="#031641"/>
<path d="M457.931 143.356L459.627 146.515L460.888 148.302L461.806 149.278C462.034 149.52 462.286 149.739 462.557 149.931L463.41 150.535L463.661 150.669C464.053 150.877 464.462 151.057 464.88 151.205V151.205V151.205C465.298 151.353 465.737 151.429 466.18 151.429H475.596H476.155C476.62 151.429 477.081 151.508 477.519 151.663L477.765 151.751C478 151.834 478.228 151.934 478.448 152.051V152.051C478.788 152.231 479.11 152.443 479.41 152.682L480.075 153.212C480.451 153.512 480.805 153.838 481.134 154.188L481.48 154.556L482.74 156.342L483.226 157.203C483.734 158.103 484.001 159.119 484.001 160.152V182.697H431.472V174.657L431.051 167.063L430.755 164.384C430.394 161.123 429.589 157.926 428.362 154.883L427.145 151.864C426.668 150.682 426.102 149.538 425.451 148.443L423.349 144.906C422.044 142.71 420.503 140.663 418.752 138.802L416.763 136.688L414.242 134.454L411.3 132.221L407.938 129.987L404.03 128.02C401.32 126.655 398.476 125.574 395.543 124.795L393.23 124.18L392.362 123.95C391.822 123.806 391.267 123.734 390.709 123.734V123.734H387.347H383.565V73.2576V73.2576C383.565 72.7641 383.965 72.3642 384.458 72.3642H393.962C394.594 72.3642 395.225 72.4113 395.85 72.5052L397.122 72.6961C397.624 72.7716 398.102 72.9639 398.516 73.2576V73.2576L399.146 73.7042L400.081 74.3663C400.298 74.5201 400.499 74.6953 400.681 74.8891L401.248 75.491L401.668 75.9377V75.9377C401.925 76.2344 402.145 76.5615 402.323 76.9117L402.508 77.2778V77.2778C403.314 78.743 403.736 80.3879 403.736 82.06V88.4451V89.7208C403.736 90.6517 403.878 91.5771 404.156 92.4653V92.4653V92.4653C404.435 93.0572 404.805 93.6014 405.253 94.0778L405.417 94.2521V94.2521C405.976 94.8462 406.593 95.3831 407.258 95.8547L407.518 96.0389L408.989 96.9771C409.409 97.2445 409.849 97.4768 410.307 97.6714L411.721 98.2723L412.981 98.719L415.238 99.5186C416.253 99.8781 417.299 100.14 418.363 100.302L419.033 100.404C419.481 100.472 419.932 100.506 420.385 100.506H425.168V100.506C425.444 100.506 425.716 100.438 425.959 100.309L426.204 100.179C426.353 100.099 426.491 100 426.614 99.8834L434.413 92.4653L434.864 92.0048C435.144 91.7178 435.466 91.4747 435.819 91.2835L436.196 91.0791C436.681 90.8162 437.224 90.6786 437.775 90.6786V90.6786H439.036H439.411C440.278 90.6786 441.141 90.7913 441.979 91.014L442.398 91.1252L443.349 91.4623C443.555 91.5353 443.755 91.6234 443.948 91.726V91.726C444.314 91.9201 444.65 92.1645 444.947 92.4519L458.367 105.419L461.65 108.521C461.981 108.834 462.272 109.188 462.514 109.575V109.575C462.829 110.077 463.059 110.627 463.194 111.204L463.237 111.385C463.352 111.873 463.41 112.373 463.41 112.875V113.013V113.907V115.247V116.14V116.587V116.587C463.41 117.175 463.28 117.756 463.029 118.289L462.989 118.373V118.373C462.711 118.966 462.346 119.514 461.907 119.999L461.762 120.16L460.501 121.5L460.048 121.947L459.627 122.394L459.207 122.84L458.787 123.287L457.559 124.627L456.719 125.521L456.298 125.967L454.503 127.875C454.307 128.084 454.197 128.36 454.197 128.647V128.647V129.094L454.164 130.881V132.221V133.114V134.008V134.008C454.164 134.89 454.359 135.762 454.735 136.56L455.425 138.028L457.947 143.388" stroke="#031641"/>
<path d="M346.352 155.99C343.831 158.67 341.206 162.599 339.205 167.156C337.204 171.714 336.477 175.202 336.067 182.347L343.631 182.348C344.032 176.542 344.472 173.861 345.312 171.181C346.152 168.501 348.245 164.031 350.776 160.459L346.352 155.99Z" fill="#FFA820"/>
<path d="M322.818 133.964C314.835 144.241 313.459 146.215 308.53 156.304C305.164 164.338 304.33 170.131 303.492 182.643L329.126 182.641C329.126 173.698 329.774 170.951 332.063 165.678C334.352 160.406 335.843 158.082 340.885 151.828L322.818 133.964Z" fill="#FE8D08"/>
<path d="M300.321 110.972C288.925 122.775 283.735 130.741 279 143.091C274.378 155.147 272.413 164.123 270.733 183.319L298.049 183.318C298.877 170.386 299.171 164.979 303.374 154.705C306.896 146.093 311.666 137.78 319.231 130.18L300.321 110.972Z" fill="#FEA815"/>
<path d="M376.405 123.573C371.856 123.513 364.444 124.725 358.027 127.722C351.611 130.72 348.668 132.956 342.365 137.866L356.233 151.715C360.855 147.25 360.235 147.692 363.377 145.461C366.519 143.23 368.419 142.337 376.405 141.441L376.405 123.573Z" fill="#00BADE"/>
<path d="M376.404 80.2462C354.131 82.9225 346.567 85.156 339.424 89.1814C327.657 94.5375 323.454 97.666 312.334 106.857L336.061 132.509C344.045 125.362 346.567 123.575 353.291 120.449C360.014 117.322 366.318 115.535 376.404 114.642L376.404 80.2462Z" fill="#00BCE1"/>
<path d="M375.564 36.4674C355.266 35.9203 337.458 41.439 322.817 47.8441C308.525 54.0965 299.241 60.1847 281.699 75.6527L306.776 102.165C318.316 91.4485 323.092 86.9188 335.513 81.8462C345.926 77.5939 363.125 71.1821 376.405 71.7561L375.564 36.4674Z" fill="#00BCE1"/>
</svg>
